<svg width="225" height="225" viewBox="0 0 225 225" fill="none" xmlns="http://www.w3.org/2000/svg">
<g filter="url(#filter0_i_12_8)">
<path fill-rule="evenodd" clip-rule="evenodd" d="M92.3265 28.9781C82.1215 31.1581 78.9526 34.5801 65.4476 58.0001C59.5796 68.1751 53.9326 77.8981 52.8966 79.6071L51.0136 82.7151L65.9816 91.3571C74.2136 96.1111 81.2986 99.9901 81.7246 99.9781C82.1516 99.9661 90.8255 85.5091 101.001 67.8511C114.47 44.4761 120.57 34.8281 123.431 32.3731L127.361 29.0001H120.835C117.245 29.0001 110.302 28.7941 105.405 28.5431C100.508 28.2921 94.6225 28.4871 92.3265 28.9781ZM131.424 33.5721C126.888 35.1131 123.321 38.9891 118.456 47.6651L114.998 53.8301L122.5 66.7391C126.625 73.8391 130.001 80.1681 130.001 80.8031C130.001 81.4391 128.121 82.9181 125.823 84.0911C122.783 85.6421 122.034 86.4281 123.073 86.9801C124.727 87.8581 156.812 91.5371 157.389 90.9161C158.247 89.9931 171.825 58.0001 171.359 58.0001C171.083 58.0001 168.844 59.1801 166.384 60.6211C163.924 62.0631 161.773 63.0761 161.604 62.8711C161.435 62.6671 158.457 57.5501 154.985 51.5001C151.513 45.4501 147.734 39.4461 146.587 38.1581C142.343 33.3941 136.844 31.7301 131.424 33.5721ZM159.501 95.0061C151.251 99.8741 144.576 104.227 144.668 104.679C144.76 105.13 152.119 118.1 161.022 133.5C180.556 167.29 181.069 168.266 182.439 174.218L183.525 178.936L191.23 166.218C195.468 159.223 199.625 151.827 200.468 149.782C202.395 145.109 202.435 137.481 200.56 132.168C199.379 128.82 175.225 85.8221 174.669 86.0771C174.577 86.1201 167.751 90.1371 159.501 95.0061ZM41.5006 97.8831L27.5006 99.5031L32.6816 102.516L37.8636 105.529L30.7306 117.979C24.6926 128.516 23.5346 131.293 23.1906 136.056C22.8166 141.223 23.0416 141.977 25.9426 145.281C29.7496 149.617 36.0206 151.318 46.3876 150.827L53.2746 150.5L60.1786 138.5C63.9756 131.9 67.4725 125.843 67.9486 125.04C68.6766 123.814 69.6245 124.022 73.8926 126.345L78.9716 129.109L75.6246 121.304C73.7846 117.012 70.5656 109.563 68.4716 104.75L64.6656 96.0001L60.0826 96.1321C57.5626 96.2041 49.2006 96.9921 41.5006 97.8831ZM125.501 158.777C120.001 166.262 115.374 172.88 115.218 173.484C115.062 174.087 119.675 181.028 125.468 188.908L136.001 203.235V197.724V192.214L151.251 191.85C169.029 191.426 173.159 190.075 176.357 183.637C178.924 178.47 177.952 173.258 172.697 163.998L168.442 156.5L152.27 156.225L136.099 155.951L135.8 150.559L135.501 145.167L125.501 158.777ZM27.8886 157.41C29.4576 160.209 32.4496 165.65 34.5386 169.5C41.0496 181.506 44.5396 185.626 50.7996 188.7L56.5006 191.5L83.2506 191.846L110.001 192.192V174.096V156L72.7506 155.967C39.4726 155.938 34.9426 155.742 30.2686 154.127L25.0366 152.32L27.8886 157.41Z" fill="url(#paint0_linear_12_8)"/>
</g>
<defs>
<filter id="filter0_i_12_8" x="23.0527" y="28.4336" width="178.887" height="178.802" filterUnits="userSpaceOnUse" color-interpolation-filters="sRGB">
<feFlood flood-opacity="0" result="BackgroundImageFix"/>
<feBlend mode="normal" in="SourceGraphic" in2="BackgroundImageFix" result="shape"/>
<feColorMatrix in="SourceAlpha" type="matrix" values="0 0 0 0 0 0 0 0 0 0 0 0 0 0 0 0 0 0 127 0" result="hardAlpha"/>
<feOffset dy="4"/>
<feGaussianBlur stdDeviation="2"/>
<feComposite in2="hardAlpha" operator="arithmetic" k2="-1" k3="1"/>
<feColorMatrix type="matrix" values="0 0 0 0 0.92549 0 0 0 0 0.992157 0 0 0 0 0.960784 0 0 0 0.25 0"/>
<feBlend mode="normal" in2="shape" result="effect1_innerShadow_12_8"/>
</filter>
<linearGradient id="paint0_linear_12_8" x1="112.496" y1="28.4336" x2="112.496" y2="203.235" gradientUnits="userSpaceOnUse">
<stop stop-color="#059669"/>
<stop offset="1" stop-color="#065F46"/>
</linearGradient>
</defs>
</svg>
